<?xml version="1.0" encoding="UTF-8"?><svg id="a" xmlns="http://www.w3.org/2000/svg" xmlns:xlink="http://www.w3.org/1999/xlink" viewBox="0 0 692.49 768"><defs><style>.c{fill:#c1c1c1;}.c,.d,.e,.f,.g,.h,.i,.j,.k,.l,.m,.n,.o,.p,.q,.r{stroke-width:0px;}.d{fill:#186889;}.s{opacity:.5;}.e{fill:#353234;}.f{fill:#fbb94d;}.g{fill:#f5c6a9;}.i,.t,.u,.v,.w{fill:none;}.x{clip-path:url(#b);}.j{fill:#b15f60;}.k{fill:#fff;}.l{fill:#8d8d8d;}.t{opacity:.01;}.t,.u{stroke:#000;}.t,.u,.v,.w{stroke-linecap:round;stroke-linejoin:round;stroke-width:.65px;}.m{fill:#f36615;}.n{fill:#eba085;}.o{fill:#f9e0d1;}.p{fill:#873944;}.q{fill:#fb9024;}.v{stroke:#873944;}.w{stroke:#f36615;}.r{fill:#3ba0b0;}</style><clipPath id="b"><polygon class="i" points="0 0 0 768 682.13 768 683 0 0 0"/></clipPath></defs><g class="x"><g class="s"><path class="c" d="m683,251c-82.76-98.21-209.38-137.21-332.66-101.18-16.08,4.7-31.86,10.64-46.52,18.73-27.57,15.22-50.86,38.12-66.55,65.43-18.03,31.38-25.79,67.49-39.7,100.91-16.6,39.88-42.18,76-74.29,104.9-22.93,20.63-49.69,38.29-65.35,64.86-11.48,19.49-15.99,42.23-19.33,64.6-5.31,35.64,9.51,113.93,9.51,113.93l634.89-.17V251Z"/></g><path class="c" d="m406.51,500.82c.17,34.77.34,69.55.51,104.32,13.08,11.97,26.95,22.17,41.7,30.87-.52,11.28-.44,21.65-.36,32.02-2.08-.11-4.47-.12-6.85-.14-.2-7.15-.48-14.92-.76-22.69-12.92-10.09-25.56-20.03-37.78-30.46.08,16.69-.29,33.6-.66,50.51-3.38.89-6.33.65-9.28.4-.06-16.45.39-34.4,1.77-52.28-13.43,10.09-26.31,20.05-38.66,30.64-1.36,7.33-1.77,13.85-2.18,20.37-2.65.38-4.97.19-7.29,0-.28-8.65-.19-17.15-.09-25.65,15.94-10.45,31.19-20.2,46.44-29.95-2.33-36.38-2.97-73.66-1.73-110.94,5.23-.06,10.46,1.08,15.2,2.97Z"/><path class="u" d="m354.07,663.56c.41-6.64,1.17-13.27,2.56-19.43,9.41-8.82,19.23-17.21,29.42-25.12"/><path class="u" d="m403.18,615.24c-1.35,16.31-1.28,32.74.2,49.05"/><path class="u" d="m423.39,631.7c6.12,4.48,12.25,8.95,18.15,12.91.08,7.92.16,15.84.25,23.76"/><path class="u" d="m407.04,505.6c-.17,29.63-.35,59.25-.52,88.88"/><path class="l" d="m404.97,562.21c-3.78,1.9-6.1,6.37-5.47,10.56.63,4.19,4.14,7.79,8.32,8.5,4.18.72,8.69-1.5,10.68-5.24,1.99-3.74,1.29-8.72-1.64-11.78-2.93-3.06-7.92-4.03-11.88-2.04Z"/><path class="u" d="m408.47,561.3c-3.79.51-7.15,3.37-8.27,7.03-1.12,3.65.08,7.91,2.93,10.45,2.85,2.54,7.22,3.23,10.72,1.7"/><path class="u" d="m409.09,564.44c2.71-.15,5.36,2,5.77,4.69"/><path class="d" d="m332.77,494.51h0c0-8.93,7.24-16.16,16.16-16.16h104.58c8.93,0,16.16,7.24,16.16,16.16h0c0,8.93-7.24,16.16-16.16,16.16h-104.58c-8.93,0-16.16-7.24-16.16-16.16Z"/><path class="u" d="m333.52,491.61c-.39,2.9-.77,5.84-.36,8.74s1.73,5.79,4.14,7.46c2.11,1.47,4.78,1.83,7.34,2.11,13.99,1.5,28.13,1.62,42.15.37"/><path class="u" d="m417.45,505.09c13.14-.11,26.28-.22,39.42-.34,3.04-.03,6.8-.53,7.83-3.39"/><path class="u" d="m463.68,487.82c.2,2.32.4,4.65.6,6.97"/><path class="l" d="m434.76,676.66c4.48,6.2,12.81,8.53,19.79,3.85,2.53-1.69,4-4.64,4.49-7.64.84-5.07-1.03-10.55-4.93-13.89-3.91-3.33-9.77-4.28-14.43-2.14-4.67,2.15-10.8,11.67-4.92,19.81Z"/><path class="u" d="m443.43,659.87c-2.65,1.13-4.81,3.36-5.84,6.05-1.04,2.69-.94,5.79.27,8.4"/><path class="u" d="m440.07,675.69c.96,1.82,3.04,3,5.1,2.87"/><path class="l" d="m344.08,656.78c-7.25,2.44-11.93,9.72-9.53,17.77.87,2.91,3.25,5.19,5.97,6.55,4.59,2.3,10.39,2.14,14.72-.61,4.34-2.75,6.98-8.06,6.31-13.16s-7.96-13.77-17.47-10.56Z"/><path class="u" d="m348.29,659.08c-3.87.05-7.63,2.36-9.42,5.79-1.79,3.43-1.55,7.84.62,11.04"/><path class="u" d="m341.88,677.27c1.16,1.57,3.18,2.46,5.12,2.25"/><path class="l" d="m399.58,682.49c7.58-1.01,13.57-7.25,12.76-15.62-.29-3.03-2.2-5.72-4.61-7.57-4.07-3.13-9.78-4.09-14.57-2.22-4.78,1.86-8.39,6.58-8.71,11.7-.32,5.13,5.17,15.04,15.13,13.71Z"/><path class="u" d="m394.58,660.16c-3.12,1.34-5.57,4.15-6.46,7.43-.89,3.28-.21,6.94,1.8,9.68"/><path class="n" d="m277.79,594.44c-11.5,22.66-24.02,43.8-35.52,66.46-8.71-3.87-15.13-9.02-20.64-15.01,7.93-17.95,15.68-45.22,26.31-65.22,7.25,3.96,22.32,12.22,29.85,13.77Z"/><path class="c" d="m245.59,680.75c1.87-9.68,1.87-17.62,2.01-27.48-2.18,1.92-6.07,3.09-9.47,2.14-1.73-.48-3.3-1.46-5.05-1.89-3.94-.99-8.44,1.27-10.08,4.8.86-2.66,1.72-5.37,1.68-8.17-.04-2.79-1.14-5.72-3.47-7.26-1.75-1.15-3.92-1.38-6.01-1.58-1.93-.18-4.17-.24-5.45,1.2-3.22,3.64,1.17,8.15,1.72,10.44-15.1,2.12-29.86,6.66-43.54,13.4-16.66,8.21-11.53,12.79-9.41,13.52,1.29.45,85.22.66,87.07.87Z"/><path class="u" d="m211.26,653.69c-4.49,1.74-8.35,5.05-10.76,9.22-.51.88-.96,1.84-.98,2.86-.01,1.02.53,2.1,1.49,2.44,1.43.5,2.82-.77,3.73-1.98,2.78-3.69,4.82-7.94,5.96-12.41-.94,3.25-.82,6.8.35,9.97.28.77.65,1.54,1.26,2.08.62.54,1.55.79,2.28.41.78-.41,1.09-1.36,1.22-2.23.61-3.96-1.01-8.2-4.56-10.35Z"/><path class="u" d="m242.06,677.58c-25.07.09-50.15.17-75.22.26"/><path class="u" d="m197.41,654.5c-.96,3.38-1.92,6.77-2.87,10.15.03-.19.05-.37.08-.56"/><path class="u" d="m191.97,654.92c-1.15,3.43-2.3,6.85-3.45,10.28"/><path class="t" d="m186.5,656.19c-.82,3.22-1.64,6.45-2.46,9.67"/><path class="p" d="m359.6,428.56c-6.51,8.54-9.34,18.48-11.82,28.76-30.03,2.95-35.23,5.06-64.83,10.2-11.29,1.96-20.45,10.22-23.65,21.22-9.59,33.02-16.55,66.8-19.21,101.5,7.6,3.13,15.21,6.25,23.68,8.41,14.19-30.84,29.9-60.99,47.13-89.97l3.94-5.13c29.26-1.31,58.53-2.61,87.79-3.92,5.02-.22,10.24-.5,14.68-2.85,5.36-2.84,8.82-8.34,10.98-14,5.04-13.26,3.76-29.07-4.44-40.64-8.2-11.58-49.77-15.9-64.26-13.57Z"/><path class="g" d="m285.35,596.68c-11.5,22.66-24.02,43.8-35.52,66.46-8.71-3.87-21.64,7.42-24.45-7.71,7.93-17.95,19.48-52.52,30.11-72.52,7.25,3.96,22.32,12.22,29.85,13.77Z"/><path class="k" d="m253.15,682.99c1.87-9.68,1.87-17.62,2.01-27.48-2.18,1.92-6.07,3.08-9.47,2.14-1.73-.48-3.3-1.46-5.05-1.89-3.94-.99-8.44,1.27-10.09,4.8.86-2.66,1.72-5.37,1.68-8.17-.04-2.79-1.14-5.72-3.47-7.26-1.75-1.15-3.92-1.38-6.01-1.58-1.93-.18-4.17-.24-5.45,1.2-3.22,3.64,1.17,8.15,1.72,10.44-15.1,2.12-29.86,6.66-43.54,13.4-16.66,8.21-11.53,12.79-9.41,13.52,1.29.45,85.22.66,87.07.87Z"/><path class="u" d="m218.81,655.93c-4.49,1.74-8.35,5.05-10.76,9.22-.51.88-.96,1.84-.98,2.86-.01,1.02.53,2.1,1.49,2.44,1.43.5,2.82-.77,3.73-1.98,2.78-3.69,4.82-7.94,5.96-12.41-.94,3.25-.82,6.8.35,9.97.28.77.65,1.54,1.26,2.08.62.54,1.55.79,2.28.41.78-.41,1.09-1.36,1.22-2.23.61-3.96-1.01-8.2-4.56-10.35Z"/><path class="u" d="m249.62,679.82c-25.07.09-50.15.17-75.22.26"/><path class="u" d="m204.97,656.74c-.96,3.38-1.92,6.77-2.87,10.15.03-.19.05-.37.08-.56"/><path class="u" d="m199.53,657.16c-1.15,3.43-2.3,6.85-3.45,10.28"/><path class="t" d="m194.06,658.43c-.82,3.22-1.64,6.45-2.46,9.67"/><path class="j" d="m375.36,457.59c-1.95.61-27.22,11.28-53.56,19.45-11.55,3.58-16.72,9.49-22.57,20.07-17.36,31.36-34.1,63.15-50.86,95.37,8.99,8.55,19.87,15.1,30.97,17.96,26.18-30.2,53.65-71.2,79.33-100.81,21.66,2.01,43.59,1.04,64.99-2.87,12.05-2.2,24.56-5.67,33.2-14.36,7.91-7.95,11.54-19.53,11.26-30.75-.28-11.21-4.19-22.1-10.56-31.53-73.54-26.34-79.76,26.71-82.19,27.47Z"/><path class="u" d="m350.85,508.78c27.23,4.86,55.87,2.5,78.67-3.22,12.17-3.05,22.21-6.29,29.97-16.15,14.22-18.08,6.71-40.94,2.58-49.84"/><path class="u" d="m428.94,449.22c8.14,6.44,19.88,7.94,29.38,3.77"/><path class="v" d="m455.53,476.27c-32.35,20.38-72.16,28.61-109.94,22.74"/><path class="v" d="m343.01,503.57c-23.34,31.48-45.6,63.77-66.71,96.79"/><path class="u" d="m358.04,510.3c-26.28,33.73-52.55,67.47-78.09,100.39-9.59-3.04-20.81-7.42-31.23-17.84"/><rect class="k" x="87.12" y="420.12" width="421.5" height="23.82"/><line class="u" x1="505.9" y1="420.12" x2="87.12" y2="420.12"/><line class="u" x1="508.62" y1="443.94" x2="89.84" y2="443.95"/><path class="d" d="m650.37,467.9c-1.25-1.75-2.5-3.75-2.2-5.88.28-2.03,1.99-3.65,3.91-4.35,1.92-.7,4.04-.63,6.07-.4,11.39,1.33,21.42,7.49,30.83,14.28,3.77-8.51,3.73-18.56,2.32-27.9-.47-3.1-1.07-6.17-1.78-9.2-10.12,1.08-20.39.81-30.44-.83-2.93-.48-6.5-1.75-6.78-4.71-.27-2.81,2.69-4.74,5.27-5.88,8.28-3.64,17.03-6.2,25.96-7.61-3.13-8.03-6.89-15.91-11.01-23.71-4.46,1.79-9.07,3.21-13.77,4.22-1.21.26-2.46.5-3.68.27-1.22-.23-2.41-1.02-2.76-2.21-.49-1.68.79-3.31,2.03-4.55,3.56-3.55,7.58-6.64,11.91-9.2-3.76-6.65-7.67-13.29-11.55-19.98-14.73,8.66-32.23,10.76-49,14.05-.63.12-1.26.25-1.89.38,4.02,4.81,7.53,10.09,9.91,15.97.92,2.28,1.56,5.18-.13,6.97-1.82,1.93-5.01,1.22-7.43.14-8.7-3.89-15.71-10.57-22.27-17.57-9.06,3.42-17.38,8.25-23.72,15.49-2.41,2.76-4.42,5.83-6.02,9.1,9.42-1.23,18.99-1.27,28.41-.1,2.27.28,4.89.88,5.86,2.95.77,1.64.15,3.67-1.07,5.01s-2.9,2.14-4.57,2.86c-10.54,4.52-21.8,6.98-33.27,9.04-.1,8.36,2.02,16.74,6.47,23.84,10.03,16,31.06,24.19,49.17,19.57,11.33,14.82,29.9,23.83,48.55,23.56,5.58-.08,11.3-1.08,16.54-3.08-7.58-5.84-14.3-12.78-19.88-20.56Z"/><path class="u" d="m641.63,386.16c-34.04,54.19-52.63,117.96-53.04,181.95"/><path class="u" d="m623.9,418.88c16.65-5,33.3-10.01,49.94-15.01"/><path class="u" d="m579.08,428.98c9.18,10.54,18.35,21.08,27.53,31.62"/><path class="u" d="m562.69,456.64c10.7,11.22,27.64,16.06,42.65,12.18,14.89,18.48,41.46,26.59,64.12,19.57-7.27-5.46-13.53-12.25-18.4-19.93-1.37-2.16-2.67-4.58-2.42-7.13.25-2.55,2.77-4.99,5.21-4.2"/><path class="u" d="m656.15,424.58c-1.92-.62-4.01,1.21-4.13,3.22-.12,2.01,1.29,3.87,3.05,4.85,1.76.98,3.82,1.25,5.82,1.43,9.42.85,18.91.22,28.35-.41,1.92,4.25,2.93,8.92,2.92,13.59"/><path class="u" d="m554.03,404.22c5.73-11.6,16.77-20.43,29.34-23.49,5.34,4.93,21.07,19.87,30.02,17.52"/><path class="r" d="m575.81,497.88c-3.86.26-8.45-.07-10.5-3.35-1.95-3.13-.45-7.29,1.74-10.26,4.37-5.91,11.17-9.66,18.25-11.63,4.36-1.21,8.84-1.8,13.36-2.13-1.36-2.87-2.92-5.66-4.64-8.32-7.58-11.72-18.19-21.24-29.73-29.1-5.65-3.85-11.56-7.32-17.66-10.36-4.43,8.01-9.66,15.55-17.28,20.42-3.18,2.04-7.64,3.43-10.52.98-2.8-2.39-2.26-6.82-1.1-10.31,2.26-6.78,5.92-12.95,9.9-18.93-10.08-3.31-20.51-5.45-31.11-6.19,4.73,12.39,3.57,26.3.26,39.14-1.87,7.23-4.38,14.27-6.88,21.32,7.1-.42,14.3-1.76,21.09.17,1.39.4,2.79.95,3.83,1.97,1.04,1.01,1.64,2.57,1.2,3.95-.68,2.11-3.25,2.82-5.44,3.19-8.29,1.41-16.63,2.55-24.99,3.42-.39,1.26-.78,2.52-1.14,3.78-3.67,12.74-5.6,26.46-1.92,39.2.63,2.19,1.44,4.32,2.4,6.38,5.38-5.73,11.5-10.77,18.16-14.93,3.34-2.09,7.24-4.03,11.06-3.09,5.55,1.35,8.06,8.43,6.38,13.89-1.67,5.46-6.24,9.49-10.84,12.88-3.82,2.82-7.81,5.41-11.94,7.77,5.62,4.65,12.28,8.02,19.4,9.59,16.22,3.58,34.19-2.37,45.5-15.69,7.37.55,14.87-1.38,21.22-5.16,11.99-7.15,19.47-20.69,20.8-34.59.29-3.01.3-6.02.08-9.02-9.55,2.26-19.16,4.34-28.94,5Zm-55.89,4.77c-2.29,1.82-5.37,2.4-8.29,2.19-2.24-.16-4.61-.88-5.93-2.69-1.69-2.32-1.03-5.77.89-7.9,1.92-2.13,4.79-3.16,7.61-3.69,3.98-.75,7.49,1.53,8.41,4.3s-.39,5.97-2.68,7.79Zm39.75-40.48c-1.2,2.22-3.52,3.71-5.99,4.25-2.4.53-5.27.04-6.65-2-1.25-1.87-.83-4.47.41-6.35,1.25-1.87,3.17-3.17,5.03-4.42,1.73-1.16,5-.52,6.64,1.4,1.64,1.92,1.75,4.89.55,7.11Z"/><path class="u" d="m520.57,449.9c31.89,39.33,49.13,90.27,47.68,140.88"/><path class="u" d="m547.35,492.96c9.77-14.22,18.84-28.91,27.16-44.03"/><path class="u" d="m560.17,525.46c-12.09-6.4-24.82-11.6-37.93-15.49"/><path class="u" d="m528.54,461.34c-9.22-2.18-18.36-4.66-27.42-7.44"/><path class="u" d="m497.06,408.05c4.81,20.15,2.22,41.97-7.9,60.63,6.58,0,17.32-.49,21.83.66,8.72,2.22,4.95,9.18-4.69,10.64"/><path class="u" d="m521.36,491.95c1.66,2.15,2.17,5.12,1.33,7.7-.84,2.58-3,4.68-5.61,5.44"/><path class="u" d="m579.68,445.28c9.73,8.36,16.08,16.57,19.78,25.56-9.38-.41-18.87,2.41-26.49,7.88"/><path class="u" d="m604.98,493.06c1.69,12.19-2.22,25.04-10.41,34.23-8.19,9.18-20.51,14.54-32.81,14.25-5.62,8.3-14.57,14.28-24.4,16.29"/><path class="u" d="m485.09,531.54c4.71-6.93,11.26-12.59,18.8-16.25,3.01-1.46,6.33-2.63,9.65-2.25s6.62,2.71,7.19,6.01"/><path class="q" d="m602.83,682.68c6.79-37.95,11.82-78.41,18.38-115.02-29.35-.24-59.27-.45-89.97-1.29,5.89,37.95,13.26,78.95,22.6,116.31,17.01-.22,30.99.8,48.99,0Z"/><path class="f" d="m541.75,668.16c.61,1.31,1.87,9.52,2.92,14.52,1.77.17,66.43.55,68.07,0,.82-4.55,3.54-11.35,5.09-15.93-25.31.36-50.62.73-76.08,1.41Z"/><path class="u" d="m546.28,667.71c22.97,0,47.95-.53,71.46-.53-1.67,4.63-3.34,10.86-5.02,15.49"/><path class="f" d="m618.11,584.43l-3.33-3.41-3.04,3.67c-4.35,5.26-8.74,10.88-13.11,16.76-4.04-4.94-8.67-9.51-13.8-13.64l-2.67-2.14-2.68,2.13c-5.19,4.12-10.11,9.01-14.65,14.57-4.74-4.35-9.64-8.79-14.79-12.8l-2.79-2.17-2.66,2.33c-2.77,2.42-5.47,5.09-8.12,8.03.65,3.64,1.31,7.28,1.99,10.91,3.01-3.78,6.04-7.13,9.13-10.09,4.34,3.57,8.49,7.38,12.85,11.38l5.5,5.05,2.83-3.79c4.12-5.51,8.6-10.38,13.35-14.5,4.99,4.34,9.38,9.16,13.08,14.36l3.47,4.86,3.5-4.84c4.34-6,8.72-11.76,13.07-17.17.43.48.85.97,1.26,1.46.57-3.6,1.16-7.19,1.76-10.78-.06-.06-.11-.12-.17-.18Z"/><path class="u" d="m537.55,573.82c1.53,4.78,2.45,9.76,2.71,14.78"/><path class="u" d="m544.46,608.65c3.9,17.84,7.8,35.69,11.7,53.53"/><path class="o" d="m273.15,261.69c-26.26,1.14-62.13-1.1-88.41-1.51.87-27.3,2.52-53.89,4.33-80.99,28.11,2.04,56.23,4.09,85.02,4.9-.88,2.74-1.09,74.79-.95,77.61Z"/><path class="u" d="m196.51,175c-.25,2.63-.5,5.26-.76,7.89"/><path class="u" d="m202.41,175.87c-.17,2.42-.33,4.84-.49,7.26"/><path class="u" d="m209.96,176.87c-.14,2.22-.28,4.44-.42,6.66"/><path class="u" d="m216.01,176.84c-.42,2.6-.5,5.25-.25,7.86"/><path class="u" d="m222.34,177.56l-.23,7.6"/><path class="u" d="m228.68,178.07c-.26,2.57-.53,5.14-.79,7.71"/><path class="u" d="m236.09,179.03c-.3,2.38-.6,4.76-.9,7.15"/><path class="u" d="m241.77,179.49c-.13,2.44-.26,4.89-.38,7.33"/><path class="u" d="m249.84,180.44c-.09,2.31-.18,4.62-.27,6.93"/><path class="u" d="m257.3,181.04c-.08,2.37-.16,4.74-.23,7.11"/><path class="u" d="m265.21,181.58c0,2.51,0,5.01,0,7.52"/><path class="u" d="m198.39,202.58c1.45-3.63,2.89-7.26,4.3-11.1,1.53,3.47,3.07,6.94,4.6,10.4"/><path class="u" d="m200.19,198.66c1.56-.13,3.12-.25,4.68-.38"/><path class="u" d="m210.32,201.74c-.28-2.99-.57-5.99-.93-8.64,1.84-.59,3.86-.58,5.69.03.74.25,1.57.75,1.58,1.54.01.7-.64,1.22-1.25,1.56-1.65.91-3.55,1.36-5.43,1.3"/><path class="u" d="m220.12,202.43c-.19-3.11-.39-6.22-.64-9.32,1.93-.87,4.23-.85,6.14.06.4.19.79.42,1.08.76.29.34.47.79.39,1.23-.11.64-.71,1.07-1.28,1.38-1.63.92-3.42,1.55-5.27,1.86"/><path class="u" d="m223.17,197.91c1.02,1.62,2,3.26,2.94,4.92"/><path class="u" d="m230.35,193.43c.24,3.09.32,6.18.23,9.28"/><path class="u" d="m234.86,193.52c.17,3.19.33,6.38.43,9.93,2.53.04,5.05.07,7.58.11"/><path class="k" d="m244.76,245.83l-.03-7.83c-2.78-.1-5.56-.19-8.35-.28.03,2.61.05,5.22.07,7.82l8.3.29Z"/><path class="k" d="m236.03,217.98c.07,2.78.13,5.57.18,8.35l8.48.32-.03-8.37-8.63-.3Z"/><path class="k" d="m235.99,216.47l8.67.3-.03-8.68c-2.96-.14-5.92-.27-8.89-.38.09,2.91.18,5.83.25,8.75Z"/><path class="k" d="m226.92,217.66l.06,8.33,7.72.29c-.05-2.79-.11-5.57-.18-8.35l-7.6-.27Z"/><path class="k" d="m234.94,245.48c-.02-2.6-.04-5.21-.07-7.82-2.61-.08-5.21-.16-7.82-.24l.05,7.78,7.83.28Z"/><path class="k" d="m226.91,216.15l7.57.27c-.07-2.92-.16-5.84-.25-8.75-2.46-.09-4.92-.17-7.37-.24l.06,8.73Z"/><path class="k" d="m244.72,236.48l-.03-8.32-8.46-.32c.05,2.78.09,5.57.13,8.36,2.79.09,5.57.18,8.36.28Z"/><path class="k" d="m234.85,236.16c-.03-2.79-.08-5.58-.13-8.36l-7.74-.29.06,8.41c2.6.08,5.2.16,7.81.24Z"/><path class="k" d="m254.58,236.83l-.06-8.3-8.31-.31.03,8.31c2.78.1,5.56.2,8.34.3Z"/><path class="k" d="m205.81,235.36c-.04-2.88-.08-5.77-.13-8.65l-11.25-.42c-.03,2.94-.06,5.88-.09,8.83,3.82.08,7.64.16,11.47.25Z"/><path class="k" d="m205.83,236.87c-3.84-.09-7.68-.17-11.51-.25-.03,2.48-.05,4.95-.08,7.43l11.66.41c-.02-2.53-.04-5.06-.07-7.59Z"/><path class="k" d="m205.48,216.91l-10.97-.39c-.02,2.75-.04,5.5-.06,8.25l11.21.42c-.05-2.76-.11-5.52-.18-8.28Z"/><path class="k" d="m255.95,217.17l10.24.36c.06-2.72.13-5.44.22-8.16-3.5-.25-7.01-.47-10.52-.68l.06,8.48Z"/><polygon class="k" points="246.17 218.34 246.2 226.71 254.51 227.02 254.45 218.63 246.17 218.34"/><path class="k" d="m254.64,246.18l-.05-7.83c-2.78-.1-5.56-.2-8.35-.3l.03,7.84,8.37.29Z"/><path class="k" d="m246.17,216.82l8.27.29-.06-8.51c-2.75-.16-5.5-.31-8.25-.44l.03,8.66Z"/><path class="k" d="m225.53,235.87l-.06-8.43-8.31-.31.03,8.51c2.78.07,5.56.15,8.34.23Z"/><path class="k" d="m254.65,247.69l-8.38-.29.03,8.91c2.8.12,5.61.25,8.41.38l-.06-9Z"/><polygon class="k" points="217.13 217.32 217.16 225.62 225.46 225.93 225.41 217.61 217.13 217.32"/><path class="k" d="m265.99,238.8c-3.29-.13-6.59-.27-9.89-.39l.05,7.82,9.87.35c-.02-2.6-.04-5.2-.04-7.78Z"/><path class="k" d="m266.02,228.96l-9.99-.37.06,8.3c3.3.12,6.6.26,9.9.39,0-2.78.01-5.55.04-8.32Z"/><path class="k" d="m234.95,247l-7.83-.28.06,8.81c2.6.1,5.2.2,7.79.3,0-2.94,0-5.89-.02-8.84Z"/><path class="k" d="m244.79,256.24l-.03-8.9-8.3-.29c.02,2.95.02,5.9.02,8.85,2.77.11,5.54.23,8.31.34Z"/><path class="k" d="m256.16,247.74l.06,9.01c3.31.16,6.63.32,9.94.5-.05-3.07-.09-6.12-.12-9.17l-9.88-.35Z"/><path class="k" d="m205.91,245.98l-11.69-.41c-.04,2.9-.07,5.79-.11,8.69,3.94.17,7.88.32,11.81.47,0-2.91,0-5.83-.02-8.75Z"/><path class="k" d="m205.44,215.39c-.07-2.8-.16-5.59-.24-8.38-3.55-.03-7.09-.05-10.64-.05,0,2.67-.03,5.36-.04,8.04l10.92.38Z"/><path class="k" d="m256.02,227.07l10.01.37c.03-2.81.08-5.61.13-8.41l-10.2-.36.06,8.39Z"/><path class="k" d="m217.12,215.8l8.27.29-.06-8.72c-2.75-.08-5.5-.14-8.24-.19l.03,8.62Z"/><path class="k" d="m215.68,235.6l-.03-8.52-8.45-.32c.05,2.88.09,5.75.13,8.63,2.78.07,5.57.14,8.35.21Z"/><path class="k" d="m206.99,216.96c.07,2.76.13,5.52.18,8.29l8.48.32-.03-8.3-8.63-.3Z"/><path class="k" d="m225.6,245.15l-.05-7.77c-2.78-.08-5.57-.16-8.35-.23l.03,7.71,8.37.29Z"/><path class="k" d="m206.95,215.44l8.66.3-.03-8.59c-2.96-.05-5.91-.09-8.87-.12.09,2.8.17,5.6.24,8.41Z"/><path class="k" d="m215.75,255.1l-.03-8.78-8.3-.29c.02,2.92.02,5.84.02,8.75,2.77.11,5.54.21,8.31.32Z"/><path class="k" d="m215.71,244.81l-.03-7.69c-2.78-.07-5.56-.14-8.34-.21.03,2.54.05,5.08.07,7.61l8.3.29Z"/><path class="k" d="m225.61,246.67l-8.38-.29.03,8.78c2.8.11,5.61.21,8.41.32l-.06-8.81Z"/><path class="u" d="m273.7,184.12c-1.37,25.18-1.06,51.75-.56,77.57-25.11-1.06-51.66-1.24-76.71-1.24"/><path class="w" d="m407.43,237.85c9.42-10.52,23.86-16.32,37.94-15.24,14.08,1.08,27.47,9.03,35.17,20.86,3.01,4.63,5.21,9.96,5.19,15.49-.02,5.52-2.58,11.22-7.31,14.06"/><path class="m" d="m405.86,242c1.36,10.1,5.79,19.76,12.55,27.38s15.82,13.17,25.68,15.73c6.9,1.79,14.31,2.12,21.11-.04,6.8-2.16,12.9-6.99,15.71-13.54,2.15-5,2.29-10.73.88-15.99-1.41-5.25-4.31-10.03-7.95-14.07-7.97-8.83-19.58-14.17-31.45-14.88-11.87-.7-23.89,3.14-33.63,9.92-.88,1.65-1.76,3.3-2.89,5.48Z"/><polygon class="l" points="388.23 424.06 323.62 434.62 218.85 434.41 287.15 422.94 388.23 424.06"/><path class="d" d="m434.06,386.14c15.77.27,31.53.54,47.3.81,2.8.05,5.63.09,8.37-.5,2.74-.59,5.42-1.9,7.15-4.1,2.57-3.28,2.59-7.81,2.5-11.97-.21-9.7-.42-19.39-.63-29.09-.09-4-.18-8.05-1.22-11.91-1.04-3.87-3.13-7.59-6.47-9.8-3.44-2.29-7.76-2.71-11.88-3.01-12.32-.88-24.69-1.13-37.36-.71-3.45,23.16-5.96,46.46-7.77,70.29Z"/><path class="u" d="m480.87,317.46c4.6.41,9.49,1.54,12.55,5,2.35,2.65,3.26,6.26,3.88,9.75,1.79,9.96,1.98,20.13,2.16,30.25"/><path class="u" d="m488.83,330.22c2.07,14.05,2.59,28.33,1.56,42.5-.25,3.45-.86,7.35-3.74,9.27"/><path class="o" d="m399.63,347.55c15.8-20.12,29.47-47.4,34.85-72.41-17.13-4.62-35.75-4.84-52.9.08-4.79,1.37-9.47,3.15-15.1,5.83,8.25,23.27,16.95,49.02,33.16,66.5Z"/><path class="q" d="m312.16,420.4s7.96-45.48,14.97-74.92c2.94-12.36,5.94-24.86,11.77-36.14,5.84-11.28,14.4-23.92,26.54-28.29,0,68.62-21.61,139.36-21.61,139.36h-31.68Z"/><path class="f" d="m465.04,420c7.84-32.82,7.15-70.27-.84-103.05-2.74-11.23-6.53-22.5-13.76-31.52-7.23-9.02-16.42-12.48-28.82-13.83-8.21,17.33-17.75,33.12-27.44,49.49-7.13-14.68-14.38-30.44-21.16-43.77-8.14,1.96-14.44,9.6-18.19,17.09-3.75,7.49-5.04,15.91-6.43,24.16-8.25,49.11,7.44,100.91,7.44,100.91l109.19.52Z"/><path class="g" d="m338.32,412.67c-3.88.3-7.75.82-11.48,1.92-3.73,1.09-7.32,2.76-10.36,5.19-.29.23-.57.47-.74.8s-.18.76.06,1.03c.29.33.8.31,1.24.27,2.57-.27,5.15-.54,7.72-.81l13.55-8.4Z"/><path class="g" d="m330.56,432.48c5.75-.97,10.05-1.85,16.07-2.83,3.68,2.57,8.04,3.57,12.26,3.15s8.3-2.26,11.48-5.73c6.75.04,13.51.08,20.35,1.13.48-6.62-.24-13.32-2.05-19.94-7.32.34-14.64.69-21.38,1.6-9-1.85-18.53-1.09-27.12,2.15-8.91,3.36-16.8,9.38-22.38,17.09-.4.56-.58,1.27-.4,1.93.36,1.33,1.8,1.43,2.99,1.37,2.65-.13,5.28-.43,7.89-.9h0c.51.75,1.41,1.13,2.3.98Z"/><path class="u" d="m344.37,421.82c-6.41.55-12.51,4.11-16.15,9.41"/><path class="u" d="m342.2,415.78c-8.81,2.94-16.66,8.7-22.11,16.23"/><path class="f" d="m371.09,430.54c20.31,7.13,42.51,5.71,63.97,4.02,11.38-.89,23.99-2.43,31.45-11.08,4.63-5.37,6.4-12.6,7.54-19.6,3.31-20.31,2.58-41.08.54-61.56-1.24-12.45-2.99-24.98-7.43-36.68-4.44-11.7-12.49-19.83-22.86-26.24-5.73,40.42-8.8,78.33-9.02,119.22-22.82,1.86-45.55,4.81-68.49,9.43,5.17,5.87,6.91,14.56,4.31,22.49Z"/><path class="u" d="m440.21,316.21c-4.09,26.96-5.45,54.34-3.74,82.1-23.58.58-47.09,4.13-69.78,10.55"/><path class="u" d="m426.97,434.62c7.01-.17,14.07-.34,20.89-2.02,6.82-1.68,14.04-3.58,18.64-9.12,5.36-6.44,6.86-16.57,8.09-25.02,3.05-20.89-.95-63.04-.95-64.46"/><path class="g" d="m388.76,245.78c-.18,9.86-.35,19.72-.53,29.59,6.72,3.59,14.87,3.51,21.17-.08-1.05-10-1.6-20.13-1.8-29.8-6.05-2.46-13.13-2.21-18.85.3Z"/><path class="k" d="m284.22,327.96c-3.74-.29-7.47-.58-11.21-.87-1.13-.09-2.33-.2-3.26-.84-1.66-1.15-1.87-3.48-1.9-5.49-.19-10.72.05-21.45.73-32.16.05-.86.13-1.78.64-2.48.69-.96,1.96-1.25,3.12-1.46,9.57-1.71,19.36-2.18,29.06-1.45,2.23.17,4.62.47,6.26,1.99,1.84,1.71,2.2,4.44,2.44,6.94.88,8.93,1.75,17.9,1.24,26.86-.17,2.85-.64,6.02-2.88,7.79-1.76,1.4-4.17,1.56-6.42,1.67-5.47.26-10.89.03-17.82-.5Z"/><path class="k" d="m285.32,323.54c.92,5.36,2.1,10.67,3.52,15.92,1.9-4.56,3.8-9.12,6.12-13.9-2.93-.69-5.85-1.39-9.63-2.02Z"/><path class="f" d="m277.79,314.84c-.56-.04-1.13-.09-1.64-.31s-.97-.66-1.06-1.21c-.11-.65.29-1.28.71-1.79,1.26-1.57,2.8-2.91,4.54-3.92-.13-2.46-.14-4.93.3-7.34.44-2.41,1.35-4.79,2.99-6.62,2.58-2.86,8.74-4.77,13.03,0,1.64,1.82,2.56,4.2,2.99,6.62.44,2.41.42,4.88.3,7.34,1.73,1.02,3.28,2.35,4.54,3.92.41.52.82,1.14.71,1.79-.09.55-.55.99-1.06,1.21s-1.08.27-1.64.31c-3.87.29-20.83.29-24.7,0Z"/><ellipse class="f" cx="289.63" cy="316.06" rx="3.65" ry="4.03"/><path class="u" d="m289.08,294.76c-2.07.4-3.63,2.21-4.35,4.19-.72,1.98-.73,4.13-.74,6.24"/><path class="u" d="m300,308.19c1.36.53,2.79,1.11,3.71,2.24s1.12,3,.01,3.96c-.7.61-1.71.69-2.64.74-5.53.28-11.06.28-16.59,0"/><path class="u" d="m299.69,286.64c1.25.05,2.49.23,3.92.71,2.02,5.31,3.22,10.92,3.54,16.59"/><path class="u" d="m307.46,307.35c.24,3.6.14,7.23-.28,10.81"/><path class="u" d="m270.51,319.89c-.13,1.19.27,2.43,1.06,3.33s1.97,1.45,3.16,1.48"/><polygon class="f" points="175.79 272.63 176.42 202.2 164.34 201.6 166.54 272.63 175.79 272.63"/><polygon class="r" points="152.52 200.28 163.65 198.47 166.82 272.63 155.97 272.63 152.52 200.28"/><polygon class="q" points="141.69 203.75 151.73 207.37 156.1 272.63 142.47 272.63 141.69 203.75"/><polygon class="m" points="102.95 205.34 122.11 205.39 125.42 272.63 104.5 272.63 102.95 205.34"/><polygon class="d" points="101.17 189.71 104.65 272.63 84.94 272.63 80.62 191.19 101.17 189.71"/><polygon class="g" points="122.62 222.31 102.82 221.64 103.06 236.87 122.92 237.52 122.62 222.31"/><polygon class="r" points="101.2 199.48 81.01 199.55 81.35 204.19 102.11 204.83 101.2 199.48"/><path class="p" d="m142.03,192.08l-20.26,1.8,2.27,78.76h19.41l-1.42-80.56Zm-8.16,14.27c-1.7.27-3.48-.91-3.96-2.56-.28-.95-.13-2.07.53-2.81.66-.74,1.87-.99,2.43-.95,1.67-.41,3.53.89,3.78,2.58.25,1.7-1.09,3.45-2.78,3.72Z"/><path class="u" d="m116.91,228.13c-2.47-.31-4.96-.39-7.45-.26"/><path class="u" d="m116.58,231.29c-2-.1-4-.21-6-.31"/><path class="u" d="m97.45,266.04c-1.05,1.12-1.98,2.35-2.76,4.02-1.04-1.78-2.08-3.56-3.11-5.35"/><path class="u" d="m148.74,248.05c1.33,1.02,1.62,3.14.63,4.48-.44.59-1.13,1.29-.76,1.93.29.51,1.07.52,1.4,1.01.51.74-.44,1.59-.8,2.42-.37.86-.05,1.85.38,2.67.43.83.99,1.62,1.13,2.54.14.92-.33,2.03-1.25,2.19"/><path class="u" d="m159,205.06c.14,5.55.28,11.11.42,16.66"/><path class="u" d="m159.24,228.4c.13,2.47.25,4.95.38,7.43"/><path class="u" d="m122.12,206.39c1.36,21.84,1.88,44.41,3.24,66.24"/><path class="u" d="m134.32,192.89c2.5-.27,5.01-.54,7.47-1.15-.39,19.59.07,39.19,1.37,58.74"/><path class="u" d="m176.14,202.5c-4.22-.29-8.44-.58-12.32.25.54,17.42,1.08,34.85,1.62,52.27"/><path class="u" d="m152.59,219.62c1.79,18.89,2.59,34.05,2.39,53.02"/><path class="u" d="m104.5,272.63c-.48-11.14-2.63-71.6-3.85-82.95-4.41.38-8.82.75-13.23,1.13"/><line class="u" x1="283.7" y1="272.63" x2="71.22" y2="272.4"/><path class="e" d="m323.62,434.41h-104.76s-25.45-46.49-38.89-84.89c-.6-1.72,104.11,0,104.11,0l39.54,84.89Z"/><path class="l" d="m239.25,360c5.89,1.04,7.62,7.86,5.93,11.25-1.71,3.42-7.81,5.33-13.18,1.65-2.18-1.49-3-4.79-2.39-7.51s3.97-6.39,9.64-5.39Z"/><path class="u" d="m321.17,428.48c-12.01-26.8-36.86-78.96-36.86-78.96,0,0-71.07-1.26-104.35,0"/><path class="r" d="m123.18,384.56c-5.94-5.24-10.17-12.4-11.89-20.14-.41-1.85-.68-3.78-.32-5.65.36-1.86,1.33-4.01,3.17-4.49,2.15-.56,4.13.8,5.06,1.22-2.26-4.28-3.12-9.29-2.42-14.08.36-2.48,1.31-5.14,3.52-6.32,1.91-1.02,4.32-.65,6.21.41,1.89,1.06,3.36,2.7,4.8,4.32.26-2.77.72-5.59,2.03-8.05,1.3-2.46,3.59-4.54,6.34-4.97,2.75-.44,5.86,1.15,6.59,3.84,1.1-2.64,2.35-5.26,4.25-7.39,1.89-2.14,4.52-3.76,7.37-3.91,3.28-.17,6.44,1.66,8.48,4.23,2.04,2.57,3.07,5.81,3.62,9.05,1.15,6.83.25,13.98-2.56,20.31,1.36-1.53,3.88-1.67,5.63-.61,1.75,1.06,2.77,3.09,3,5.13.23,2.04-.23,4.09-.87,6.04-2.93,8.82-9.54,15.84-15.72,22.87-12.13-.85-24.29-1.29-36.27-1.81Z"/><path class="u" d="m173.38,352.51c-2.25-1.17-5.02-.44-7.26.73-4.54,2.38-8.12,6.54-9.78,11.38-.19.54-.35,1.1-.31,1.67s.32,1.15.83,1.4c.85.42,1.84-.2,2.54-.84,4.03-3.7,6.32-8.9,8.17-14.05,1.36-3.8,2.55-7.7,2.99-11.72.44-4.02.1-8.18-1.5-11.89"/><path class="u" d="m151.53,322.23c-4.5,5.36-7.25,12.3-7.82,16.11-.97,6.43,1.21,10.01,3.87,10.01,5.31,0,3.9-12.19-.71-17.89-2.2-2.72-5.32-6.45-11.08-2.21-4.66,3.43-4.9,9.82-4.77,13.79.31,9.05,2.08,12.56,4.55,13.53,3.15,1.24,3.58-1.89,3.29-4.34-.79-6.76-7.14-12.48-12.96-16.02"/><path class="u" d="m116.72,346.39c.48,3.18.97,6.38,2.04,9.42,1.06,3.04,2.75,5.93,5.26,7.94.5.4,1.06.78,1.7.86.64.08,1.37-.2,1.6-.8.22-.57-.05-1.2-.34-1.74-1.75-3.17-4.67-5.69-8.06-6.95-1.36-.5-2.86-.81-4.25-.39-1.65.5-2.86,1.99-3.4,3.62-.54,1.64-.48,3.41-.26,5.11,1.09,8.17,5.98,15.36,11.62,21.37"/><path class="j" d="m115.4,384.62c2.07,15.98,4.13,31.97,6.2,47.95l34.71.47c2.52-15.83,5.05-31.65,7.57-47.48l-48.48-.95Z"/><path class="p" d="m112.92,382.41c17.51.39,37.04.78,55,.93-1.08,4.21-2.03,8.45-3.09,12.87-16.66-.82-33.35-.84-50.29.28-.42-2.99-1.49-11.04-1.62-14.08Z"/><path class="u" d="m165.04,394.04c1.07-3.52,2.15-7.04,3.68-10.07-17.94-1.89-55.81-1.56-55.81-1.56"/><path class="u" d="m156.98,391.72c-11.94.26-23.89.52-35.83.78"/><path class="u" d="m118.17,401.86c.88,9.98,2.19,19.92,3.85,30.32,11.04.25,22.07.51,33.11.76"/><path class="g" d="m394.09,264.6c7.21-3.27,20.71-16.64,19.5-38.91-1.01-18.47-4.03-39.38-28.9-39.47-24.86.09-28.52,20.97-28.9,39.47-.26,12.53,3,30.12,15.7,38.09,8.72,5.47,17.45,3.16,22.6.82Z"/><path class="u" d="m357.51,242.02c5.24,20.66,15.98,24.19,23.63,24.92s15.65-3.06,21.03-8.44"/><path class="u" d="m369.34,220.95c.13,5.21.27,10.42.4,15.63"/><path class="h" d="m361.09,229.57c0-1.18-.62-2.14-1.38-2.14s-1.38.96-1.38,2.14.62,2.14,1.38,2.14,1.38-.96,1.38-2.14Z"/><path class="h" d="m384.73,229.08c0-1.18-.62-2.14-1.38-2.14s-1.38.96-1.38,2.14.62,2.14,1.38,2.14,1.38-.96,1.38-2.14Z"/><path class="w" d="m355.67,219.7c.83-1.16,2.1-1.99,3.5-2.27,1.39-.29,2.89-.03,4.11.7"/><path class="w" d="m379.22,217.31c1.19-1.21,2.87-1.93,4.57-1.95,1.7-.02,3.39.66,4.61,1.84"/><path class="u" d="m379.34,243.24c-.57,1.46-2,2.55-3.57,2.72-1.56.17-3.19-.59-4.07-1.9"/><path class="w" d="m373.35,188.65c4.21,12.98,12.4,24.63,23.18,33"/><path class="m" d="m372.84,188.31c4.56,13.4,15.17,24.36,27.49,31.33,2.98,1.68,6.1,3.2,9.46,3.85s7,.37,10.61-.98c.81-11.55-4.74-23.35-14.16-30.09-9.42-6.74-22.24-8.52-33.4-4.12Z"/><path class="m" d="m356.9,212.16c.44-.22,11.98-9.77,15.94-23.85-5.01.72-17.28,8.92-15.94,23.85Z"/><path class="u" d="m377.89,191.43c5.07,10.25,13.83,18.63,24.3,23.25"/><path class="u" d="m385.53,195.37c5.9,6.23,13.56,10.78,21.86,12.98"/><path class="g" d="m409.37,224.13c1.85-2.33,3.84-4.68,6.51-5.97,2.67-1.29,6.22-1.22,8.24.95,1.23,1.32,1.72,3.2,1.66,5.01-.12,3.53-2.35,6.94-5.58,8.35-3.23,1.41-7.3.66-9.71-1.85-.35-1.71-.69-3.42-1.13-6.49Z"/><path class="u" d="m419.77,222.13c-1.13,2.03-2.26,4.05-3.4,6.08"/><path class="u" d="m421.44,227.07c-2.02-1.44-4.14-2.72-6.36-3.83"/><path class="u" d="m424.84,220.53c1.24,4.04-.48,8.79-4.01,11.11s-8.58,2-11.79-.74"/></g></svg>